<svg xmlns="http://www.w3.org/2000/svg" viewBox="0 0 512 512">
  <circle cx="256" cy="256" r="256" fill="#c8001e"/>
  <circle cx="256" cy="256" r="256" fill="url(#g)"/>
  <defs>
    <radialGradient id="g" cx="35%" cy="30%">
      <stop offset="0%" stop-color="#ff2244"/>
      <stop offset="100%" stop-color="#8b0010"/>
    </radialGradient>
  </defs>
  <!-- seam lines -->
  <path d="M256 60 C310 120, 310 392, 256 452" stroke="#f5e6b0" stroke-width="6" fill="none" stroke-linecap="round"/>
  <path d="M256 60 C202 120, 202 392, 256 452" stroke="#f5e6b0" stroke-width="6" fill="none" stroke-linecap="round"/>
  <!-- stitches on left seam -->
  <g stroke="#f5e6b0" stroke-width="4" stroke-linecap="round">
    <line x1="220" y1="140" x2="208" y2="150"/>
    <line x1="215" y1="175" x2="202" y2="183"/>
    <line x1="212" y1="210" x2="199" y2="218"/>
    <line x1="212" y1="245" x2="199" y2="253"/>
    <line x1="212" y1="280" x2="199" y2="288"/>
    <line x1="215" y1="315" x2="202" y2="323"/>
    <line x1="220" y1="350" x2="208" y2="360"/>
  </g>
  <!-- stitches on right seam -->
  <g stroke="#f5e6b0" stroke-width="4" stroke-linecap="round">
    <line x1="292" y1="140" x2="304" y2="150"/>
    <line x1="297" y1="175" x2="310" y2="183"/>
    <line x1="300" y1="210" x2="313" y2="218"/>
    <line x1="300" y1="245" x2="313" y2="253"/>
    <line x1="300" y1="280" x2="313" y2="288"/>
    <line x1="297" y1="315" x2="310" y2="323"/>
    <line x1="292" y1="350" x2="304" y2="360"/>
  </g>
  <!-- shine -->
  <ellipse cx="195" cy="185" rx="35" ry="22" fill="white" opacity="0.15" transform="rotate(-30 195 185)"/>
</svg>
